<svg width="876" height="654" viewBox="0 0 876 654" fill="none" xmlns="http://www.w3.org/2000/svg">
<path opacity="0.18" d="M279.45 627.399C342.28 655.05 413.343 654.625 481.976 653.712C517.979 653.256 555.227 652.526 588.009 637.589C633.582 616.813 663.174 572.217 703.157 542.04C749.064 507.331 807.823 492.365 852.333 455.891C873.996 438.152 891.538 415.899 903.738 390.681C915.937 365.463 922.501 337.886 922.973 309.87C923.444 281.853 917.811 254.07 906.467 228.455C895.123 202.84 878.339 180.008 857.285 161.548C833.739 140.924 805.636 126.353 777.775 112.025L637.866 39.9296C605.084 23.0465 571.451 5.88968 534.871 1.29628C504.003 -2.56705 472.77 2.78685 442.601 9.69217C356.62 29.1609 271.307 62.7141 208.234 124.132C153.972 177.062 118.547 248.154 59.1803 295.274C43.9893 307.29 27.1577 317.907 16.0987 333.786C-23.7017 391.006 16.6151 464.105 68.3253 493.429C139.936 534.01 204.376 594.393 279.45 627.399Z" fill="#7168FD"/>
</svg>
