<svg width="619" height="467" viewBox="0 0 619 467" fill="none" xmlns="http://www.w3.org/2000/svg">
<path opacity="0.18" d="M375.519 -22.4812C326.164 -30.9146 275.959 -18.0229 227.559 -5.2175C202.166 1.48396 175.94 8.59982 155.391 24.976C126.827 47.7509 113.79 84.5475 90.8463 112.983C64.5139 145.675 25.5906 166.675 0.559674 200.367C-11.6255 216.757 -20.0949 235.61 -24.2588 255.614C-28.4227 275.619 -28.1813 296.294 -23.5511 316.201C-18.9209 336.108 -10.0133 354.768 2.55167 370.882C15.1166 386.996 31.0369 400.177 49.2046 409.508C69.5188 419.93 91.9849 425.26 114.236 430.462L226.002 456.685C252.189 462.823 279.025 469.004 305.721 465.773C328.247 463.037 349.397 453.716 369.52 443.485C426.907 414.476 481.326 375.621 515.072 320.99C544.087 273.925 556.557 217.348 590.214 173.489C598.834 162.296 608.862 151.802 613.873 138.608C631.897 91.07 590.419 46.4915 548.636 34.9042C490.778 18.8788 434.485 -12.4289 375.519 -22.4812Z" fill="#7168FD"/>
</svg>
