<svg width="375" height="364" viewBox="0 0 375 364" fill="none" xmlns="http://www.w3.org/2000/svg">
<g clip-path="url(#clip0)">
<path d="M187.506 364C291.063 364 375.012 353.611 375.012 340.797C375.012 327.982 291.063 317.593 187.506 317.593C83.9493 317.593 0 327.982 0 340.797C0 353.611 83.9493 364 187.506 364Z" fill="#7168FD"/>
<path d="M187.506 364C291.063 364 375.012 353.611 375.012 340.797C375.012 327.982 291.063 317.593 187.506 317.593C83.9493 317.593 0 327.982 0 340.797C0 353.611 83.9493 364 187.506 364Z" fill="url(#paint0_linear)"/>
<path d="M84.7868 114.111C81.3089 111.749 77.3927 110.109 73.2707 109.291C69.1486 108.473 64.9044 108.491 60.7897 109.347C59.2836 109.582 57.8606 110.192 56.6514 111.121C53.8331 113.504 54.2731 117.935 53.5239 121.58C52.6083 126.07 49.5997 129.917 48.5176 134.349C47.8874 137.683 47.8512 141.102 48.4106 144.449C49.995 157.652 53.1529 170.616 57.8168 183.066L44.7361 355.674C44.7361 355.674 58.1141 357.842 85.2506 360.01L88.1284 195.633L84.7868 114.111Z" fill="#EEA886"/>
<path d="M69.9104 214.774L87.2364 284.956V183.733L79.5307 160.792L69.9104 214.774Z" fill="url(#paint1_linear)"/>
<path d="M296.48 115.588C299.966 113.243 303.885 111.622 308.007 110.82C312.128 110.018 316.369 110.051 320.477 110.919C321.985 111.159 323.411 111.769 324.627 112.694C327.434 115.076 327.006 119.507 327.743 123.164C328.671 127.654 331.679 131.502 332.761 135.933C333.393 139.263 333.426 142.68 332.856 146.022C331.283 159.225 328.129 172.19 323.462 184.638L336.483 354.84C336.483 354.84 321.916 357.294 295.886 359.76L293.091 197.193L296.48 115.588Z" fill="#EEA886"/>
<path d="M313.58 209.759L307.432 241.384L294.34 269.912L293.186 207.83L313.58 209.759Z" fill="url(#paint2_linear)"/>
<path d="M304.4 57.6511H72.5504C67.0534 57.6511 62.5972 62.1148 62.5972 67.621V206.543C62.5972 212.05 67.0534 216.513 72.5504 216.513H304.4C309.897 216.513 314.353 212.05 314.353 206.543V67.621C314.353 62.1148 309.897 57.6511 304.4 57.6511Z" fill="#7168FD"/>
<path d="M304.4 57.6511H72.5504C67.0534 57.6511 62.5972 62.1148 62.5972 67.621V206.543C62.5972 212.05 67.0534 216.513 72.5504 216.513H304.4C309.897 216.513 314.353 212.05 314.353 206.543V67.621C314.353 62.1148 309.897 57.6511 304.4 57.6511Z" fill="url(#paint3_linear)"/>
<path d="M304.4 51.2785H72.5504C67.0534 51.2785 62.5972 55.7421 62.5972 61.2483V200.171C62.5972 205.677 67.0534 210.141 72.5504 210.141H304.4C309.897 210.141 314.353 205.677 314.353 200.171V61.2483C314.353 55.7421 309.897 51.2785 304.4 51.2785Z" fill="#7168FD"/>
<path d="M84.8938 117.506C88.9013 113.051 88.9012 113.051 93.4319 107.715L112.732 85.083C115.767 81.7628 118.55 78.2192 121.056 74.4819H139.286C138.774 79.392 138.54 84.3272 138.584 89.2639V118.22H141.165C144.111 118.193 147.052 117.954 149.964 117.506V133.729C147.073 133.37 144.162 133.191 141.248 133.193H138.584V137.648C138.502 141.314 138.737 144.981 139.286 148.606H120.973C121.469 144.915 121.704 141.194 121.674 137.469V133.169H96.4643C90.6731 133.169 88.1402 133.253 84.8938 133.515V117.506ZM121.758 108.072C121.758 104.058 121.936 99.1623 122.293 95.2434C120.509 97.7329 119.177 99.5196 116.775 102.545L103.754 118.399H121.722L121.758 108.072Z" fill="white"/>
<path d="M164.674 141.924C161.836 139.126 159.623 135.756 158.181 132.038C155.838 125.493 154.662 118.586 154.709 111.633C154.709 102.271 156.933 92.5753 160.322 86.9531C165.744 77.8647 174.996 72.8738 186.198 72.8738C194.831 72.8738 202.394 75.8159 207.817 81.2118C210.659 84.0069 212.872 87.3775 214.31 91.0983C216.666 97.6684 217.841 104.605 217.782 111.586C217.782 120.948 215.558 130.751 212.181 136.362C206.842 145.271 197.495 150.262 186.198 150.262C177.481 150.214 170.109 147.356 164.674 141.924ZM172.998 110.955C172.998 126.904 177.529 135.099 186.341 135.099C195.152 135.099 199.505 127.083 199.505 111.276C199.457 95.9462 194.796 87.906 186.198 87.906C177.838 87.906 172.951 96.3988 172.951 110.919L172.998 110.955Z" fill="white"/>
<path d="M222.396 117.506C226.403 113.051 226.403 113.051 230.934 107.715L250.246 85.083C253.262 81.7615 256.024 78.2179 258.51 74.4819H276.752C276.23 79.3913 275.992 84.3269 276.039 89.2639V118.22H278.619C281.565 118.193 284.506 117.954 287.419 117.506V133.729C284.527 133.37 281.616 133.191 278.702 133.193H276.039V137.648C275.954 141.315 276.192 144.982 276.752 148.606H258.427C258.928 144.916 259.167 141.194 259.141 137.469V133.169H233.966C228.187 133.169 225.642 133.253 222.396 133.515V117.506ZM259.26 108.072C259.26 104.058 259.438 99.1623 259.795 95.2434C258.011 97.7329 256.679 99.5196 254.277 102.545L241.256 118.399H259.224L259.26 108.072Z" fill="white"/>
<path d="M85.7499 174.704C87.2476 174.459 88.7631 174.339 90.2806 174.347C92.1217 174.207 93.95 174.749 95.4178 175.872C95.9468 176.356 96.3644 176.95 96.6416 177.612C96.9188 178.275 97.049 178.989 97.0231 179.707C97.0597 180.422 96.9534 181.137 96.7104 181.81C96.4674 182.483 96.0926 183.1 95.608 183.626C94.8585 184.323 93.9758 184.86 93.0132 185.206C92.0506 185.552 91.028 185.699 90.0071 185.639C89.3724 185.662 88.7373 185.606 88.1163 185.472V192.822H85.738L85.7499 174.704ZM88.1283 183.543C88.7673 183.691 89.4229 183.755 90.0785 183.733C92.9324 183.733 94.6686 182.351 94.6686 179.814C94.6686 177.277 92.9562 176.241 90.352 176.241C89.6059 176.221 88.86 176.285 88.1283 176.431V183.543Z" fill="white"/>
<path d="M100.852 187.056L98.9496 192.822H96.5713L102.779 174.49H105.609L111.852 192.822H109.331L107.381 187.056H100.852ZM106.798 185.21L105.002 179.933C104.598 178.742 104.325 177.646 104.051 176.586C103.789 177.67 103.48 178.79 103.135 179.898L101.34 185.21H106.798Z" fill="white"/>
<path d="M128.06 192C126.256 192.652 124.354 192.995 122.435 193.012C121.185 193.133 119.924 192.977 118.74 192.557C117.556 192.137 116.478 191.462 115.583 190.58C114.687 189.697 113.996 188.629 113.556 187.451C113.117 186.272 112.941 185.011 113.041 183.757C113.041 178.29 116.811 174.299 122.947 174.299C124.511 174.261 126.066 174.549 127.513 175.145L126.942 177.075C125.669 176.516 124.288 176.248 122.899 176.289C118.44 176.289 115.538 179.064 115.538 183.65C115.538 188.236 118.333 191.059 122.602 191.059C123.676 191.115 124.749 190.945 125.753 190.558V185.103H122.031V183.197H128.06V192Z" fill="white"/>
<path d="M141.141 184.221H134.006V190.832H141.938V192.822H131.639V174.49H141.533V176.479H134.03V182.268H141.165L141.141 184.221Z" fill="white"/>
<path d="M150.797 192.821V174.49H153.377L159.24 183.757C160.461 185.671 161.561 187.66 162.534 189.713C162.32 187.33 162.26 185.043 162.26 182.185V174.514H164.496V192.845H162.118L156.303 183.543C155.041 181.571 153.897 179.527 152.878 177.42H152.795C152.937 179.743 152.985 181.946 152.985 184.984V192.821H150.797Z" fill="white"/>
<path d="M184.295 183.459C184.295 189.772 180.466 193.119 175.793 193.119C171.119 193.119 167.564 189.367 167.564 183.816C167.564 177.992 171.131 174.192 176.066 174.192C181.001 174.192 184.295 178.028 184.295 183.459ZM170.097 183.757C170.097 187.676 172.213 191.19 175.935 191.19C179.657 191.19 181.798 187.735 181.798 183.566C181.798 179.933 179.895 176.122 175.959 176.122C172.023 176.122 170.097 179.743 170.097 183.757Z" fill="white"/>
<path d="M190.158 176.503H184.593V174.49H198.149V176.503H192.548V192.822H190.17L190.158 176.503Z" fill="white"/>
<path d="M205.938 174.49H215.796V176.479H208.304V182.566H215.225V184.519H208.304V192.857H205.926L205.938 174.49Z" fill="white"/>
<path d="M234.799 183.459C234.799 189.772 230.97 193.119 226.308 193.119C221.468 193.119 218.079 189.367 218.079 183.816C218.079 177.992 221.647 174.192 226.57 174.192C231.493 174.192 234.799 178.028 234.799 183.459ZM220.6 183.757C220.6 187.676 222.717 191.19 226.439 191.19C230.161 191.19 232.301 187.735 232.301 183.566C232.301 179.933 230.399 176.122 226.463 176.122C222.527 176.122 220.6 179.743 220.6 183.757Z" fill="white"/>
<path d="M240.233 174.49V185.341C240.233 189.451 242.053 191.19 244.502 191.19C247.213 191.19 248.95 189.391 248.95 185.341V174.49H251.328V185.21C251.328 190.844 248.367 193.155 244.407 193.155C240.661 193.155 237.831 191.011 237.831 185.317V174.526L240.233 174.49Z" fill="white"/>
<path d="M255.442 192.821V174.49H258.023L263.885 183.757C265.107 185.669 266.204 187.658 267.167 189.713H267.227C267.013 187.33 266.953 185.043 266.953 182.185V174.514H269.177V192.845H266.799L260.996 183.543C259.73 181.574 258.586 179.529 257.571 177.42H257.488C257.619 179.743 257.678 181.946 257.678 184.984V192.821H255.442Z" fill="white"/>
<path d="M273.28 174.728C274.945 174.478 276.626 174.35 278.31 174.347C281.699 174.347 284.125 175.145 285.718 176.634C286.598 177.48 287.284 178.507 287.729 179.644C288.175 180.781 288.369 182.001 288.299 183.221C288.366 184.528 288.168 185.836 287.717 187.064C287.265 188.293 286.569 189.417 285.671 190.368C283.958 192.083 281.128 193.012 277.573 193.012C276.137 193.001 274.704 192.906 273.28 192.726V174.728ZM275.658 190.939C276.445 191.056 277.241 191.104 278.036 191.082C283.09 191.082 285.825 188.248 285.825 183.304C285.825 178.98 283.447 176.229 278.417 176.229C277.487 176.211 276.558 176.295 275.646 176.479L275.658 190.939Z" fill="white"/>
<path d="M73.2639 112.027C74.2842 112.535 75.1535 113.303 75.7849 114.254C76.3074 115.371 76.5638 116.594 76.5341 117.827L76.8908 125.51C77.0522 126.774 76.9011 128.059 76.4508 129.25C76.2109 129.838 75.7719 130.323 75.2109 130.619C74.6499 130.915 74.0027 131.004 73.3828 130.87C73.8381 132.366 73.9854 133.938 73.8157 135.492C73.6461 137.046 73.163 138.55 72.3958 139.911C72.0113 140.485 71.7109 141.11 71.5039 141.769C71.4051 142.564 71.4454 143.37 71.6228 144.152C71.8925 146.079 71.7488 148.041 71.2013 149.908C70.6538 151.775 69.7151 153.504 68.4478 154.979C68.0604 155.462 67.584 155.867 67.0446 156.17C66.3372 156.472 65.5779 156.634 64.809 156.647L61.3129 156.944C61.14 157.001 60.9565 157.018 60.7763 156.992C60.5962 156.967 60.4243 156.9 60.2738 156.798C60.1234 156.696 59.9983 156.56 59.9084 156.402C59.8185 156.243 59.766 156.066 59.7551 155.884C57.1005 147.45 55.8943 138.625 56.1876 129.786C56.3251 125.333 56.8584 120.9 57.7811 116.541C58.34 113.992 59.434 110.109 62.1572 109.073C65.6771 107.834 70.2196 110.276 73.2639 112.027Z" fill="#EEA886"/>
<path d="M302.913 112.027C301.893 112.535 301.024 113.303 300.392 114.254C299.87 115.371 299.613 116.594 299.643 117.827L299.286 125.51C299.125 126.774 299.276 128.059 299.726 129.25C299.966 129.838 300.405 130.323 300.966 130.619C301.527 130.915 302.175 131.004 302.794 130.87C302.34 132.365 302.192 133.937 302.36 135.491C302.527 137.044 303.007 138.548 303.77 139.911C304.162 140.481 304.467 141.108 304.673 141.769C304.774 142.565 304.729 143.372 304.542 144.152C304.278 146.079 304.426 148.042 304.975 149.908C305.525 151.775 306.463 153.503 307.729 154.979C308.117 155.462 308.593 155.867 309.133 156.17C309.84 156.472 310.599 156.634 311.368 156.647L314.9 156.992C315.073 157.049 315.256 157.065 315.437 157.04C315.617 157.014 315.789 156.948 315.939 156.846C316.09 156.743 316.215 156.608 316.304 156.449C316.394 156.291 316.447 156.114 316.458 155.932C319.112 147.497 320.319 138.673 320.025 129.834C319.89 125.38 319.352 120.946 318.42 116.589C317.873 114.04 317.231 110.847 314.531 109.811C310.976 108.513 305.958 110.276 302.913 112.027Z" fill="#EEA886"/>
</g>
<defs>
<linearGradient id="paint0_linear" x1="186.364" y1="308.505" x2="189.836" y2="406.821" gradientUnits="userSpaceOnUse">
<stop stop-opacity="0"/>
<stop offset="0.95"/>
</linearGradient>
<linearGradient id="paint1_linear" x1="80.5058" y1="275.903" x2="77.0338" y2="138.827" gradientUnits="userSpaceOnUse">
<stop stop-opacity="0"/>
<stop offset="0.99"/>
</linearGradient>
<linearGradient id="paint2_linear" x1="5514.06" y1="13603.3" x2="5149.6" y2="9148.17" gradientUnits="userSpaceOnUse">
<stop stop-opacity="0"/>
<stop offset="0.95"/>
</linearGradient>
<linearGradient id="paint3_linear" x1="39067.1" y1="37938.3" x2="39521.5" y2="13035.3" gradientUnits="userSpaceOnUse">
<stop stop-opacity="0"/>
<stop offset="0.99"/>
</linearGradient>
<clipPath id="clip0">
<rect width="375" height="364" fill="white"/>
</clipPath>
</defs>
</svg>
